<?xml version="1.0" encoding="iso-8859-1"?>
<!-- Generator: Adobe Illustrator 19.1.0, SVG Export Plug-In . SVG Version: 6.00 Build 0)  -->
<svg version="1.1" id="Capa_1" xmlns="http://www.w3.org/2000/svg" xmlns:xlink="http://www.w3.org/1999/xlink" x="0px" y="0px"
	 viewBox="0 0 128.012 128.012" style="enable-background:new 0 0 128.012 128.012;" xml:space="preserve">
<g>
	<g>
		<rect x="51.794" y="73.284" width="23.709" height="14.494"/>
		<rect x="51.794" y="51.942" width="23.709" height="16.765"/>
		<path d="M80.081,51.942v16.765h23.269c1.264,0,2.29,1.024,2.29,2.288c0,1.264-1.025,2.288-2.29,2.288H80.081v14.494h21.561
			c1.264,0,2.29,1.024,2.29,2.288c0,1.264-1.025,2.288-2.29,2.288H80.081v17.209c0,1.264-1.025,2.288-2.289,2.288
			c-1.264,0-2.29-1.024-2.29-2.288V92.354H51.794v17.209c0,1.264-1.025,2.288-2.29,2.288c-1.264,0-2.29-1.024-2.29-2.288V92.354
			H25.907c-1.264,0-2.29-1.024-2.29-2.288c0-1.264,1.025-2.288,2.29-2.288h21.308V73.284H21.611c-1.264,0-2.29-1.024-2.29-2.288
			c0-1.264,1.026-2.288,2.29-2.288h25.604V51.942H10.181c0,0.231,0.022,0.46,0.069,0.685l10.9,54.868
			c0.203,4.86,4.219,8.749,9.127,8.749h67.049c4.911,0,8.927-3.894,9.127-8.755l10.719-54.873c0.044-0.222,0.066-0.447,0.066-0.674
			H80.081z"/>
	</g>
	<path d="M122.39,33.316H85.574l6.094-14.522h24.367c1.941,0,3.514-1.573,3.514-3.514s-1.573-3.514-3.514-3.514H89.332
		c-1.416,0-2.693,0.85-3.239,2.155l-8.137,19.394h-31.18l-8.135-19.394c-0.546-1.305-1.823-2.155-3.239-2.155H8.699
		c-1.941,0-3.514,1.573-3.514,3.514s1.573,3.514,3.514,3.514h24.367l6.092,14.522H5.622C2.517,33.316,0,35.834,0,38.938
		c0,3.104,2.517,5.622,5.622,5.622H122.39c3.104,0,5.622-2.517,5.622-5.622C128.012,35.834,125.494,33.316,122.39,33.316z"/>
</g>
<g>
</g>
<g>
</g>
<g>
</g>
<g>
</g>
<g>
</g>
<g>
</g>
<g>
</g>
<g>
</g>
<g>
</g>
<g>
</g>
<g>
</g>
<g>
</g>
<g>
</g>
<g>
</g>
<g>
</g>
</svg>
