<svg id="Layer_1" data-name="Layer 1" xmlns="http://www.w3.org/2000/svg" viewBox="0 0 101 101"><title>log_Artboard 2 copy 14</title><path d="M82,35.5A30.5,30.5,0,1,0,50,66v9.9a1.5,1.5,0,0,0,1.5,1.5,7.07,7.07,0,1,1-7.2,7.07,1.5,1.5,0,0,0-3,0,10.2,10.2,0,1,0,11.7-10V66A30.54,30.54,0,0,0,82,35.5Zm-50.36,19,5.08-5.08a1.5,1.5,0,1,0-2.12-2.12l-4.92,4.92A27.35,27.35,0,0,1,24,37H30.5a1.5,1.5,0,0,0,0-3H24A27.54,27.54,0,0,1,50,8V14.5a1.5,1.5,0,0,0,3,0V8a27.37,27.37,0,0,1,16.31,6.53l-5,5a1.5,1.5,0,1,0,2.12,2.12l5.07-5.07A27.4,27.4,0,0,1,79,34H72.5a1.5,1.5,0,0,0,0,3H79A27.54,27.54,0,0,1,53,63V56.5a1.5,1.5,0,0,0-3,0V63A27.42,27.42,0,0,1,31.64,54.49Z"/><path d="M51,44a8.94,8.94,0,0,0,3.28-.63l7.5,10.5a1.5,1.5,0,0,0,2.44-1.74L56.86,41.82A9,9,0,0,0,47,27l-6.73-9.81a1.5,1.5,0,0,0-2.47,1.7l6.78,9.89A9,9,0,0,0,51,44Zm6-9a6,6,0,1,1-6-6A6,6,0,0,1,57,35Z"/></svg>